<?xml version="1.0" encoding="iso-8859-1"?>
<!-- Generator: Adobe Illustrator 19.0.0, SVG Export Plug-In . SVG Version: 6.00 Build 0)  -->
<svg xmlns="http://www.w3.org/2000/svg" xmlns:xlink="http://www.w3.org/1999/xlink" version="1.1" id="Capa_1" x="0px" y="0px" viewBox="0 0 480 480" style="enable-background:new 0 0 480 480;" xml:space="preserve" width="512px" height="512px">
<g>
	<g>
		<path d="M186.576,79.432c-9.622,11.315-17.807,23.778-24.368,37.104l14.344,7.08c5.98-12.133,13.436-23.48,22.2-33.784    L186.576,79.432z" fill="#FFFFFF"/>
	</g>
</g>
<g>
	<g>
		<path d="M222.16,46.248c-9.604,5.702-18.198,12.955-25.432,21.464l12.2,10.344c6.102-7.16,13.346-13.261,21.44-18.056    L222.16,46.248z" fill="#FFFFFF"/>
	</g>
</g>
<g>
	<g>
		<path d="M311.944,256.464l48.216-111.28c15.345-35.504,6.916-76.81-21.112-103.464c-3.206-3.04-8.27-2.906-11.31,0.3    c-0.587,0.619-1.071,1.328-1.434,2.1l-59.4,126.208L282.304,8.8c0.442-4.396-2.764-8.318-7.16-8.76    c-0.279-0.028-0.56-0.041-0.84-0.04c-39.174-0.008-76.393,17.116-101.872,46.872l-10.08,11.76    c-68.61,80.007-66.503,198.695,4.904,276.216l21.696,23.592l76.6,117.92l0.064-0.04c1.455,2.268,3.954,3.651,6.648,3.68h71.12    c4.375,0,7.939-3.514,8-7.888l0.88-64c0.062-4.418-3.469-8.049-7.887-8.111C344.339,400,344.302,400,344.264,400H324.56    l-31.24-47.2c12.197-25.931,18.554-54.224,18.624-82.88V256.464z M336.152,416l-0.688,48h-47.2l36-48H336.152z M310.48,407.72    l-37.744,50.32l-62.696-96.52h69.848L310.48,407.72z M295.944,269.92c-0.061,26.126-5.816,51.925-16.864,75.6h-80.264L179.04,324    c-65.95-71.543-67.906-181.125-4.552-254.976l10.088-11.744c20.452-23.88,49.582-38.619,80.936-40.952l-18.848,198.128v0.064    c-0.257,2.682,0.852,5.313,2.952,7l46.4,37.12L295.944,269.92z M264.504,212.976l71.2-151.2    c17.066,21.978,20.813,51.504,9.776,77.048v0l-44.72,103.2L264.504,212.976z" fill="#FFFFFF"/>
	</g>
</g>
<g>
	<g>
		<rect x="144.264" y="168" width="16" height="16" fill="#FFFFFF"/>
	</g>
</g>
<g>
	<g>
		<rect x="176.264" y="184" width="16" height="16" fill="#FFFFFF"/>
	</g>
</g>
<g>
	<g>
		<rect x="160.264" y="232" width="16" height="16" fill="#FFFFFF"/>
	</g>
</g>
<g>
	<g>
		<rect x="144.264" y="200" width="16" height="16" fill="#FFFFFF"/>
	</g>
</g>
<g>
</g>
<g>
</g>
<g>
</g>
<g>
</g>
<g>
</g>
<g>
</g>
<g>
</g>
<g>
</g>
<g>
</g>
<g>
</g>
<g>
</g>
<g>
</g>
<g>
</g>
<g>
</g>
<g>
</g>
</svg>
