<?xml version="1.0" encoding="iso-8859-1"?>
<!-- Generator: Adobe Illustrator 17.1.0, SVG Export Plug-In . SVG Version: 6.00 Build 0)  -->
<!DOCTYPE svg PUBLIC "-//W3C//DTD SVG 1.1//EN" "http://www.w3.org/Graphics/SVG/1.1/DTD/svg11.dtd">
<svg xmlns="http://www.w3.org/2000/svg" xmlns:xlink="http://www.w3.org/1999/xlink" version="1.1" id="Capa_1" x="0px" y="0px" viewBox="0 0 200.67 200.67" style="enable-background:new 0 0 200.67 200.67;" xml:space="preserve" width="512px" height="512px">
<path d="M134.628,178.391c-0.913,0-1.803-0.016-2.649-0.031c-0.758-0.013-1.484-0.026-2.164-0.026  c-5.931,0-21.646-2.817-22.313-2.937c-0.081-0.015-0.161-0.033-0.24-0.055c-4.221,2.217-9.184,2.285-13.45,0.203  c-3.432,0.603-16.253,2.789-21.478,2.789c-0.68,0-1.407,0.013-2.165,0.026c-6.134,0.111-14.54,0.259-17.883-5.882  c-2.729-5.012-3.518-18.186-3.718-22.974c-6.608-2.754-12.536-3.981-17.929-5.098c-7.723-1.6-14.393-2.98-20.184-8.192  c-4.771-4.295-10.018-13.791-10.43-27.563c-0.386-12.876,3.46-32.593,23.973-53.406c33.177-33.664,73.577-33.037,76.337-32.949  c2.761-0.09,43.158-0.718,76.337,32.949c20.513,20.813,24.358,40.53,23.973,53.406c-0.412,13.772-5.658,23.269-10.43,27.563  c-5.791,5.212-12.461,6.593-20.184,8.192c-4.981,1.031-10.418,2.157-16.428,4.494c-0.155,4.166-0.888,18.336-3.742,23.579  C146.979,177.771,140.337,178.391,134.628,178.391z M113.765,171.388c5.146,0.836,12.615,1.945,16.05,1.945  c0.708,0,1.465,0.013,2.253,0.027c4.862,0.088,11.51,0.205,13.403-3.273c1.662-3.054,2.651-12.161,3.026-18.955  c-1.158,0.565-2.336,1.18-3.535,1.854C134.111,159.078,122.163,166.258,113.765,171.388z M53.698,151.901  c0.365,6.046,1.249,15.009,2.979,18.187c1.894,3.478,8.545,3.36,13.402,3.273c0.789-0.014,1.546-0.027,2.254-0.027  c3.184,0,9.829-0.952,14.88-1.757c-8.412-5.141-20.521-12.423-31.505-18.59C55.031,152.606,54.361,152.245,53.698,151.901z   M99.666,27.287c-5.051,0-42.162,1.081-72.107,31.465C8.287,78.308,4.666,96.599,5.022,108.5c0.366,12.21,4.957,20.558,8.778,23.996  c4.784,4.307,10.551,5.501,17.852,7.013c7.622,1.579,16.262,3.368,26.503,9.117c13.656,7.667,29.019,17.034,36.961,21.936  c3.219,1.987,7.219,1.987,10.438,0c7.942-4.901,23.305-14.269,36.961-21.936c10.241-5.75,18.881-7.539,26.503-9.117  c7.301-1.512,13.067-2.706,17.852-7.013l0,0c3.821-3.438,8.412-11.786,8.778-23.996c0.356-11.901-3.265-30.192-22.536-49.747  c-32.043-32.513-72.288-31.48-72.686-31.459c-0.062,0.001-0.124,0.002-0.184,0C100.216,27.293,100.018,27.287,99.666,27.287z   M97.885,167.307c-0.62,0-1.241-0.229-1.726-0.691c-0.224-0.214-22.659-21.485-41.948-29.607c-19.339-8.143-35.432-9.25-35.592-9.26  c-1.378-0.088-2.424-1.276-2.336-2.654c0.088-1.377,1.235-2.425,2.654-2.336c0.688,0.044,17.104,1.174,37.213,9.642  c11.696,4.925,24.145,14.144,32.713,21.185c-5.836-8.946-15.497-21.153-29.119-30.092c-24.185-15.873-44.863-18.133-45.069-18.154  c-1.374-0.14-2.374-1.367-2.234-2.741c0.14-1.374,1.377-2.374,2.74-2.234c0.892,0.091,22.11,2.412,47.308,18.948  c14.209,9.325,24.188,21.743,30.293,31.037c-2.956-11.34-9.165-27.68-22.053-42.347c-22.574-25.69-41.717-32.471-41.907-32.537  c-1.304-0.448-2.002-1.868-1.557-3.172c0.446-1.306,1.864-2,3.167-1.561c0.827,0.281,20.506,7.173,44.053,33.97  c23.669,26.937,25.816,58.283,25.896,59.604c0.007,0.11,0.007,0.22-0.001,0.327c0.047,0.677-0.181,1.37-0.685,1.899  C99.203,167.047,98.544,167.307,97.885,167.307z M97.882,132.567c-1.247,0-2.326-0.933-2.479-2.202  c-0.036-0.301-3.782-30.332-17.407-49.518C67.165,65.599,52.407,54.195,52.26,54.081c-1.095-0.84-1.302-2.41-0.462-3.505  c0.84-1.096,2.409-1.304,3.504-0.463c0.628,0.481,15.49,11.956,26.77,27.839c14.372,20.238,18.143,50.537,18.296,51.817  c0.164,1.371-0.813,2.615-2.185,2.779C98.082,132.561,97.981,132.567,97.882,132.567z" fill="#FFFFFF"/>
<g>
</g>
<g>
</g>
<g>
</g>
<g>
</g>
<g>
</g>
<g>
</g>
<g>
</g>
<g>
</g>
<g>
</g>
<g>
</g>
<g>
</g>
<g>
</g>
<g>
</g>
<g>
</g>
<g>
</g>
</svg>
