<?xml version="1.0"?>
<svg xmlns="http://www.w3.org/2000/svg" xmlns:xlink="http://www.w3.org/1999/xlink" version="1.1" id="Capa_1" x="0px" y="0px" viewBox="0 0 422.985 422.985" style="enable-background:new 0 0 422.985 422.985;" xml:space="preserve" width="512px" height="512px" class=""><g><g>
	<path style="fill:#FFFFFF" d="M164.994,179.551c28.574-2.997,50.92-27.227,50.92-56.582h-12.213   c0,22.457-16.654,41.09-38.258,44.216c-0.345-21.327-6.158-32.402-11.785-43.122c-4.505-8.583-8.788-16.789-10.032-30.892   c27.988-3.548,49.707-27.491,49.707-56.427h-12.213c0,22.298-16.419,40.832-37.801,44.153c0.596-17.191,5.336-26.23,10.338-35.758   C159.46,34.085,165.461,22.656,165.461,0h-12.213c0,19.645-5.054,29.271-10.403,39.462c-5.494,10.467-11.163,21.279-11.749,41.636   c-22.129-2.649-39.345-21.524-39.345-44.355H79.538c0,29.667,22.827,54.091,51.838,56.661c1.331,17.009,6.471,26.815,11.468,36.334   c5.168,9.846,10.046,19.192,10.372,37.526c-21.907-2.854-38.885-21.624-38.885-44.296h-12.213   c0,29.243,22.179,53.394,50.597,56.541c-1.43,13.058-5.551,20.924-9.871,29.151c-5.78,11.011-11.754,22.399-11.8,44.882   c-22.105-2.672-39.294-21.535-39.294-44.348H79.538c0,29.773,22.991,54.262,52.149,56.684c1.697,15.024,6.49,24.163,11.157,33.054   c5.351,10.19,10.403,19.815,10.403,39.458c0,0.456-0.016,0.88-0.022,1.326c-21.912-2.85-38.895-21.622-38.895-44.298h-12.213   c0,29.098,21.96,53.148,50.174,56.487c-1.71,11.181-5.494,18.414-9.448,25.943c-5.802,11.053-11.802,22.482-11.802,45.136h12.213   c0-19.644,5.053-29.269,10.403-39.459c4.503-8.578,9.123-17.386,10.967-31.489c28.75-2.827,51.288-27.138,51.288-56.619h-12.213   c0,22.455-16.65,41.087-38.251,44.216c0.004-0.414,0.01-0.823,0.01-1.244c0-22.653-6-34.082-11.802-45.135   c-4.153-7.909-8.115-15.501-9.686-27.678c27.822-3.701,49.361-27.567,49.361-56.383h-12.213c0,22.318-16.448,40.867-37.859,44.163   c0.077-19.34,5.087-28.908,10.396-39.02C158.502,205.11,163.481,195.615,164.994,179.551z" data-original="#9BC9CC" class="active-path" data-old_color="#ffffff"/>
	<path style="fill:#FFFFFF" d="M292.982,339.634c0.004-0.414,0.01-0.823,0.01-1.244c0-22.653-6-34.082-11.802-45.135   c-4.153-7.909-8.115-15.5-9.686-27.678c27.822-3.701,49.361-27.566,49.361-56.383h-12.213c0,22.319-16.448,40.868-37.859,44.164   c0.077-19.34,5.087-28.908,10.396-39.02c4.844-9.228,9.822-18.723,11.336-34.787c28.574-2.997,50.921-27.227,50.921-56.582h-12.213   c0,22.457-16.654,41.09-38.259,44.216c-0.345-21.327-6.158-32.402-11.785-43.122c-5.35-10.191-10.403-19.818-10.403-39.462h-12.213   c0,22.656,6,34.085,11.802,45.138c5.168,9.846,10.046,19.192,10.372,37.526c-21.907-2.854-38.885-21.624-38.885-44.296H229.65   c0,29.243,22.179,53.394,50.597,56.541c-1.43,13.059-5.551,20.924-9.871,29.151c-5.78,11.011-11.754,22.399-11.8,44.881   c-22.105-2.672-39.294-21.535-39.294-44.348H207.07c0,29.773,22.991,54.261,52.149,56.684c1.697,15.024,6.49,24.164,11.157,33.054   c5.351,10.19,10.403,19.815,10.403,39.458c0,0.456-0.016,0.88-0.022,1.326c-21.912-2.85-38.895-21.622-38.895-44.298H229.65   c0,29.098,21.96,53.148,50.174,56.487c-1.71,11.181-5.494,18.414-9.448,25.943c-5.802,11.053-11.802,22.482-11.802,45.136h12.213   c0-19.644,5.053-29.269,10.403-39.459c4.503-8.578,9.123-17.386,10.967-31.489c28.75-2.827,51.289-27.138,51.289-56.619h-12.213   C331.234,317.873,314.583,336.505,292.982,339.634z" data-original="#83B6B7" class="" data-old_color="#ffffff"/>
</g></g> </svg>
