<?xml version="1.0"?>
<svg xmlns="http://www.w3.org/2000/svg" xmlns:xlink="http://www.w3.org/1999/xlink" version="1.1" id="Capa_1" x="0px" y="0px" viewBox="0 0 421.126 421.126" style="enable-background:new 0 0 421.126 421.126;" xml:space="preserve" width="512px" height="512px" class=""><g><g>
	<polygon points="255.692,328.963 221.423,355.617 221.423,301.896 260.994,280.312 275.225,248.416    317.48,235.887 313.785,223.423 282.197,232.789 296.843,199.963 343.927,182.146 351.224,128.878 395.193,98.221 387.758,87.557    353.624,111.356 356.885,87.555 344.006,85.79 333.567,161.999 298.237,119.8 288.268,128.145 327.156,174.593 293.976,187.148    261.655,149.44 269.78,104.458 256.987,102.147 249.748,142.225 213.09,126.993 208.101,138.998 250.784,156.732 284.398,195.949    255.045,261.739 237.872,233.718 226.788,240.511 246.838,273.225 214.996,290.593 173.142,266.676 193.515,245.333    184.111,236.356 165.456,255.9 156.276,228.361 189.023,185.087 178.656,177.243 146.271,220.038 100.427,211.442 143.171,150.067    132.503,142.637 94.065,197.83 87.304,130.226 117.308,72.527 172.307,61.282 169.704,48.546 122.844,58.126 141.493,4.252    129.208,0 112.947,46.976 100.459,11.176 88.183,15.458 105.909,66.271 80.444,115.242 50.264,61.126 38.911,67.458    74.311,130.934 77.244,160.262 41.787,147.686 37.441,159.938 78.674,174.563 83.364,221.469 144.07,232.852 153.017,259.693    119.184,253.114 116.704,265.875 160.409,274.373 208.423,301.81 208.423,421.126 221.423,421.126 221.423,372.085    263.673,339.225  " data-original="#80D8B6" class="active-path" data-old_color="#ffffff" fill="#ffffff"/>
	<polygon points="164.626,348.964 143.346,318.433 132.68,325.867 156.807,360.484 156.807,377.316    141.522,367.635 134.567,378.618 156.807,392.703 156.807,421.126 169.807,421.126 169.807,361.521 191.618,343.677    183.385,333.615  " data-original="#80D8B6" class="active-path" data-old_color="#ffffff" fill="#ffffff"/>
	<polygon points="346.659,351.976 320.671,357.645 301.75,322.506 323.778,289.464 312.962,282.253    293.547,311.375 280.432,295.946 270.528,304.365 288.777,325.834 308.575,362.603 278.878,380.011 278.878,421.126    291.878,421.126 291.878,387.459 319.666,371.17 349.43,364.677  " data-original="#80D8B6" class="active-path" data-old_color="#ffffff" fill="#ffffff"/>
	<polygon points="98.644,365.343 84.545,378.314 84.545,299.569 103.936,277.407 94.153,268.846    78.779,286.417 60.088,258.005 68.315,227.837 55.774,224.416 50.174,244.951 36.156,227.111 25.933,235.142 47.765,262.928    71.545,299.073 71.545,348.145 51.485,329.38 42.604,338.873 71.545,365.946 71.545,421.126 84.545,421.126 84.545,395.979    107.445,374.91  " data-original="#80D8B6" class="active-path" data-old_color="#ffffff" fill="#ffffff"/>
</g></g> </svg>
