<?xml version="1.0"?>
<svg xmlns="http://www.w3.org/2000/svg" xmlns:xlink="http://www.w3.org/1999/xlink" version="1.1" id="Capa_1" x="0px" y="0px" viewBox="0 0 402.982 402.982" style="enable-background:new 0 0 402.982 402.982;" xml:space="preserve" width="512px" height="512px" class=""><g><g>
	<path d="M326.406,268.655L326.406,268.655c-34.535,0-62.532,27.996-62.532,62.532v71.796h0   c34.535,0,62.532-27.996,62.532-62.532V268.655z" data-original="#9BC9CC" class="active-path" data-old_color="#ffffff" fill="#ffffff"/>
	<path d="M388.937,134.327L388.937,134.327c-34.535,0-62.532,27.996-62.532,62.532v71.796h0   c34.535,0,62.532-27.996,62.532-62.532V134.327z" data-original="#9BC9CC" class="active-path" data-old_color="#ffffff" fill="#ffffff"/>
	<path d="M76.576,268.655L76.576,268.655c34.535,0,62.532,27.996,62.532,62.532v71.796h0   c-34.535,0-62.532-27.996-62.532-62.532V268.655z" data-original="#9BC9CC" class="active-path" data-old_color="#ffffff" fill="#ffffff"/>
	<path d="M14.045,134.327L14.045,134.327c34.535,0,62.532,27.996,62.532,62.532v71.796h0   c-34.535,0-62.532-27.996-62.532-62.532V134.327z" data-original="#9BC9CC" class="active-path" data-old_color="#ffffff" fill="#ffffff"/>
	<path d="M221.028,268.655L221.028,268.655c-34.535,0-62.532,27.996-62.532,62.532v71.796h0   c34.535,0,62.532-27.996,62.532-62.532V268.655z" data-original="#9BC9CC" class="active-path" data-old_color="#ffffff" fill="#ffffff"/>
	<path d="M158.497,0L158.497,0c34.535,0,62.532,27.996,62.532,62.532v71.796h0   c-34.535,0-62.532-27.996-62.532-62.532V0z" data-original="#9BC9CC" class="active-path" data-old_color="#ffffff" fill="#ffffff"/>
	<path d="M221.028,134.327L221.028,134.327l0,134.327h0c34.535,0,62.532-27.996,62.532-62.532v-9.264   C283.56,162.324,255.564,134.327,221.028,134.327z" data-original="#9BC9CC" class="active-path" data-old_color="#ffffff" fill="#ffffff"/>
</g></g> </svg>
